HIERARCHY
ROOT SpineBase
{
  OFFSET 0.000000 0.000000 0.000000
  CHANNELS 6 Xposition Yposition Zposition Zrotation Xrotation Yrotation
  JOINT SpineMid
  {
    OFFSET 0.000000 28.777452 0.000000
    CHANNELS 3 Zrotation Xrotation Yrotation
    JOINT SpineShoulder
    {
      OFFSET -0.004994 21.426402 -0.823948
      CHANNELS 3 Zrotation Xrotation Yrotation
      JOINT Neck
      {
        OFFSET -0.009772 7.093707 -0.549703
        CHANNELS 3 Zrotation Xrotation Yrotation
        JOINT Head
        {
          OFFSET -3.272368 12.468722 -0.689841
          CHANNELS 3 Zrotation Xrotation Yrotation
          End Site
          {
            OFFSET 0 0 0
          }
        }
      }
      JOINT ShoulderLeft
      {
        OFFSET -14.686677 -3.994619 6.071312
        CHANNELS 3 Zrotation Xrotation Yrotation
        JOINT ElbowLeft
        {
          OFFSET -1.018429 -25.848599 3.440368
          CHANNELS 3 Zrotation Xrotation Yrotation
          JOINT WristLeft
          {
            OFFSET -0.330862 -23.881905 -1.342620
            CHANNELS 3 Zrotation Xrotation Yrotation
            JOINT HandLeft
            {
              OFFSET 0.834567 -4.543143 -1.355895
              CHANNELS 3 Zrotation Xrotation Yrotation
              JOINT HandTipLeft
              {
                OFFSET 1.287019 -6.964259 -3.682746
                CHANNELS 3 Zrotation Xrotation Yrotation
                End Site
                {
                  OFFSET 0 0 0
                }
              }
              JOINT ThumbLeft
              {
                OFFSET 2.516129 -1.017237 -5.513654
                CHANNELS 3 Zrotation Xrotation Yrotation
                End Site
                {
                  OFFSET 0 0 0
                }
              }
            }
          }
        }
      }
      JOINT ShoulderRight
      {
        OFFSET 11.019724 -3.765910 -10.919031
        CHANNELS 3 Zrotation Xrotation Yrotation
        JOINT ElbowRight
        {
          OFFSET 5.136478 -23.032803 -2.142554
          CHANNELS 3 Zrotation Xrotation Yrotation
          JOINT WristRight
          {
            OFFSET -1.924879 -22.000868 -4.079791
            CHANNELS 3 Zrotation Xrotation Yrotation
            JOINT HandRight
            {
              OFFSET -1.671263 -5.205810 0.112034
              CHANNELS 3 Zrotation Xrotation Yrotation
              JOINT HandTipRight
              {
                OFFSET 0.129386 -6.503768 0.322333
                CHANNELS 3 Zrotation Xrotation Yrotation
                End Site
                {
                  OFFSET 0 0 0
                }
              }
              JOINT ThumbRight
              {
                OFFSET -3.093283 1.305142 -0.805268
                CHANNELS 3 Zrotation Xrotation Yrotation
                End Site
                {
                  OFFSET 0 0 0
                }
              }
            }
          }
        }
      }
    }
  }
  JOINT HipLeft
  {
    OFFSET -5.295501 0.272250 -0.150919
    CHANNELS 3 Zrotation Xrotation Yrotation
    JOINT KneeLeft
    {
      OFFSET 4.707644 -26.235817 7.939210
      CHANNELS 3 Zrotation Xrotation Yrotation
      JOINT AnkleLeft
      {
        OFFSET 7.687247 -32.837887 8.326265
        CHANNELS 3 Zrotation Xrotation Yrotation
        JOINT FootLeft
        {
          OFFSET -3.929759 -3.154072 -9.718918
          CHANNELS 3 Zrotation Xrotation Yrotation
          End Site
          {
            OFFSET 0 0 0
          }
        }
      }
    }
  }
  JOINT HipRight
  {
    OFFSET 5.070999 1.401051 -6.681265
    CHANNELS 3 Zrotation Xrotation Yrotation
    JOINT KneeRight
    {
      OFFSET 7.958366 -26.181397 4.618377
      CHANNELS 3 Zrotation Xrotation Yrotation
      JOINT AnkleRight
      {
        OFFSET 6.970094 -35.434214 8.489349
        CHANNELS 3 Zrotation Xrotation Yrotation
        JOINT FootRight
        {
          OFFSET -3.376229 -4.821016 -3.907644
          CHANNELS 3 Zrotation Xrotation Yrotation
          End Site
          {
            OFFSET 0 0 0
          }
        }
      }
    }
  }
}
MOTION
Frames: 9
Frame Time: 0.033333
7.835649 65.487529 341.274614 -0.129540 -3.537468 33.706034 0.324338 -0.484574 -33.710685 -0.366947 0.454113 -0.004246 1.444137 9.416146 1.523620 0.000000 0.000000 0.000000 1.268579 4.552092 0.037750 1.270963 1.496275 -0.327692 -7.337717 10.359042 4.173130 6.547465 -22.699220 -5.853315 0.000000 0.000000 0.000000 0.000000 0.000000 0.000000 -35.916565 30.076594 21.237426 -126.926725 7.506495 -18.289849 39.503191 -8.013764 -36.626666 -38.803943 10.574496 19.791071 0.000000 0.000000 0.000000 0.000000 0.000000 0.000000 2.463429 3.587764 -33.660305 -1.728072 -2.058382 -0.917198 1.176963 0.100489 4.177668 0.000000 0.000000 0.000000 5.044396 4.006023 -32.828990 -3.192261 -5.613553 -2.146771 -6.983606 30.404878 -7.909507 0.000000 0.000000 0.000000
7.889744 65.423128 341.015832 -0.054369 -3.209358 34.282947 0.187421 -0.527290 -34.281963 -0.382290 0.348525 -0.005900 0.860657 10.011283 1.745200 0.000000 0.000000 0.000000 0.357102 3.947003 0.000152 2.628009 4.030614 -0.342386 -6.087112 3.683112 2.524048 4.258566 -18.525545 -4.800377 0.000000 0.000000 0.000000 0.000000 0.000000 0.000000 -35.297528 31.392657 21.685245 -129.726097 7.800397 -23.283316 45.169561 -0.299599 -31.134512 -38.809914 7.405585 10.925677 0.000000 0.000000 0.000000 0.000000 0.000000 0.000000 1.854007 2.620684 -34.326882 -1.713091 -1.562613 -0.823607 1.065721 0.451178 4.245689 0.000000 0.000000 0.000000 4.090917 3.406214 -33.617579 -2.666232 -5.035952 -1.828524 -7.411854 29.956969 -7.298508 0.000000 0.000000 0.000000
8.002935 65.424541 340.701492 0.097853 -2.843930 34.595909 0.004358 -0.556751 -34.585729 -0.391964 0.268003 -0.006249 0.348220 10.445299 1.932971 0.000000 0.000000 0.000000 -0.997110 2.703168 -0.064675 4.431694 7.784627 -0.429176 -4.115997 -4.181816 0.802840 -2.230217 -16.593737 -2.461524 0.000000 0.000000 0.000000 0.000000 0.000000 0.000000 -34.442106 32.662967 21.956063 -132.394031 7.934389 -28.812931 47.667459 4.919910 -28.552801 -39.512279 6.890223 9.847813 0.000000 0.000000 0.000000 0.000000 0.000000 0.000000 0.801769 3.105308 -34.865171 -0.026731 -1.944417 -0.421586 0.370826 0.684778 4.160534 0.000000 0.000000 0.000000 2.937816 2.922147 -34.166581 -1.994681 -4.497392 -1.494611 -6.785141 27.693376 -6.747448 0.000000 0.000000 0.000000
8.146880 65.480415 340.407778 0.285188 -2.487104 34.777265 -0.117787 -0.478626 -34.757208 -0.404524 0.223889 -0.006112 -0.055756 10.562628 2.068809 0.000000 0.000000 0.000000 -1.866981 1.530283 -0.125641 5.980072 10.006610 -0.589201 -5.444037 -8.215493 0.341110 -3.085700 -15.315393 -1.686143 0.000000 0.000000 0.000000 0.000000 0.000000 0.000000 -33.514114 33.720411 22.044215 -134.539264 7.867450 -34.583428 47.894534 6.765111 -28.367978 -40.629104 7.552857 12.250247 0.000000 0.000000 0.000000 0.000000 0.000000 0.000000 -0.536448 2.932536 -35.339593 1.315183 -1.775607 -0.030620 -0.147599 1.106658 4.102579 0.000000 0.000000 0.000000 1.184867 2.205391 -34.793881 -0.891191 -3.479055 -0.919835 -3.215033 21.529622 -6.817197 0.000000 0.000000 0.000000
8.129612 65.480220 340.287647 0.234657 -2.427033 34.791845 -0.057694 -0.416299 -34.774677 -0.401568 0.062805 -0.007849 -0.122169 10.793972 2.134802 0.000000 0.000000 0.000000 -2.069805 0.947596 -0.132985 6.529274 10.695512 -0.693880 -8.383284 -8.257441 0.728668 -1.212763 -15.825077 -2.404041 0.000000 0.000000 0.000000 0.000000 0.000000 0.000000 -32.816632 34.698398 22.239419 -135.772691 7.617609 -39.222892 46.115540 13.086840 -24.265066 -37.961220 6.954944 8.412959 0.000000 0.000000 0.000000 0.000000 0.000000 0.000000 -0.974132 2.857669 -35.494230 1.960320 -1.592709 0.175136 -0.424211 1.198353 4.042960 0.000000 0.000000 0.000000 1.192632 2.126923 -34.809014 -0.856338 -3.559199 -0.926556 0.006684 15.945149 -6.523272 0.000000 0.000000 0.000000
7.986714 65.486716 340.349211 0.000692 -2.667840 34.884302 0.155585 -0.332002 -34.879659 -0.408778 -0.176094 -0.012706 0.097227 11.122214 2.144455 0.000000 0.000000 0.000000 -1.601806 1.591157 -0.091292 5.943167 9.282724 -0.597824 -10.020122 -6.794734 1.240279 1.340888 -14.653914 -2.988131 0.000000 0.000000 0.000000 0.000000 0.000000 0.000000 -32.417973 35.495066 22.530070 -135.794135 7.179294 -42.086003 41.966691 16.778081 -20.569169 -33.910324 6.290491 3.596040 0.000000 0.000000 0.000000 0.000000 0.000000 0.000000 -1.115071 3.566558 -35.745370 3.239146 -1.801180 0.502201 -0.932026 1.164302 3.924615 0.000000 0.000000 0.000000 2.631613 2.858706 -34.510608 -1.470362 -4.812773 -1.434729 2.313535 12.135503 -6.155170 0.000000 0.000000 0.000000
7.719428 65.481499 340.575129 -0.421033 -3.150573 34.975880 0.495608 -0.257589 -34.996896 -0.439318 -0.419193 -0.022210 0.888418 11.213438 2.009345 0.000000 0.000000 0.000000 0.304804 3.496716 0.019180 3.531541 5.634656 -0.449522 -11.046085 -4.216739 1.979570 5.320685 -11.872753 -3.731320 0.000000 0.000000 0.000000 0.000000 0.000000 0.000000 -32.241703 36.064214 22.869464 -134.932832 6.649096 -43.225403 36.597864 20.640096 -15.504117 -28.143296 5.563015 -1.709870 0.000000 0.000000 0.000000 0.000000 0.000000 0.000000 -0.679026 4.743778 -35.918483 4.416610 -2.294721 0.787207 -1.348522 0.941153 3.792039 0.000000 0.000000 0.000000 4.534545 3.350522 -34.241650 -2.551167 -5.967453 -2.020043 3.396736 10.950181 -6.059256 0.000000 0.000000 0.000000
7.435511 65.348723 340.994556 -0.839066 -3.870894 34.406501 0.841614 -0.074503 -34.460846 -0.481808 -0.649495 -0.034816 1.907381 11.514341 1.869945 0.000000 0.000000 0.000000 0.580719 4.106318 0.029925 3.080072 4.771606 -0.366981 -10.237361 -2.562759 2.212130 5.873746 -11.045345 -3.752206 0.000000 0.000000 0.000000 0.000000 0.000000 0.000000 -32.370004 36.247608 23.199856 -133.014637 5.911098 -42.661704 29.031011 21.068137 -11.625686 -21.568416 5.990274 -4.370752 0.000000 0.000000 0.000000 0.000000 0.000000 0.000000 0.707702 5.489117 -35.179884 4.122893 -2.654044 0.683754 -1.366906 0.529786 3.668074 0.000000 0.000000 0.000000 6.840085 4.376719 -33.244141 -3.727224 -7.443995 -2.761252 2.994565 12.511554 -6.478818 0.000000 0.000000 0.000000
7.216414 65.226221 341.421659 -1.155529 -4.604117 33.963598 1.088638 0.100778 -34.050731 -0.546533 -0.863598 -0.047612 3.156645 11.762749 1.663784 0.000000 0.000000 0.000000 1.806937 6.414470 0.006125 1.513083 1.949707 -0.270757 -9.033858 -2.457292 1.950957 7.896101 -6.804689 -3.873454 0.000000 0.000000 0.000000 0.000000 0.000000 0.000000 -32.408281 36.487292 23.509836 -131.443450 5.547333 -41.177158 22.385444 24.679904 -5.031106 -14.868770 3.695260 -10.581365 0.000000 0.000000 0.000000 0.000000 0.000000 0.000000 2.010368 6.804996 -34.590955 4.125234 -3.537454 0.584864 -1.410493 0.223501 3.641471 0.000000 0.000000 0.000000 8.864794 5.522637 -32.470104 -4.708497 -8.761193 -3.441224 1.157817 16.499642 -7.122685 0.000000 0.000000 0.000000
